<svg xmlns="http://www.w3.org/2000/svg" viewBox="0 0 64 64">
  <defs>
    <linearGradient id="g" x1="0" x2="1" y1="0" y2="1">
      <stop offset="0" stop-color="#1c4ed8" />
      <stop offset="1" stop-color="#5fa8ff" />
    </linearGradient>
  </defs>
  <rect width="64" height="64" rx="16" fill="#f8fafd" />
  <path
    fill="url(#g)"
    d="M32 12c-7.7 0-14 6.3-14 14 0 4 1.6 7.6 4.4 10.2l-.4 5.8 6-3.6c1.3.4 2.6.6 4 .6 7.7 0 14-6.3 14-14S39.7 12 32 12Zm0 4c5.5 0 10 4.5 10 10s-4.5 10-10 10c-1.2 0-2.4-.2-3.5-.7l-.8-.3-2.8 1.7.2-3-.7-.6C22.8 31.1 22 29.1 22 27c0-5.5 4.5-10 10-10Z"
  />
</svg>
